<svg xmlns="http://www.w3.org/2000/svg" viewBox="0 0 3000 2250" width="3000" height="2250"><g transform="translate(183.75 303.75) rotate(0.0 1320.0 508.125) scale(3.7104708362614196 3.6954545454545453)"><svg width="711.5" height="275" viewBox="0 0 711.5 275"><path d="M0 0h711.5v275H0z" fill="#f8f8f9"/><path d="M50.8 0h50.8v275H50.8z" fill="#f2f2f4"/><path d="M101.6 0h50.8v275h-50.8z" fill="#f8f8f9"/><path d="M152.4 0h50.8v275h-50.8z" fill="#f2f2f4"/><path d="M203.2 0H254v275h-50.8z" fill="#f8f8f9"/><path d="M254 0h50.8v275H254z" fill="#f2f2f4"/><path d="M304.8 0h50.8v275h-50.8z" fill="#f8f8f9"/><path d="M355.6 0h50.8v275h-50.8z" fill="#f2f2f4"/><path d="M406.5 0h50.8v275h-50.8z" fill="#f8f8f9"/><path d="M457.3 0h50.8v275h-50.8z" fill="#f2f2f4"/><path d="M508.1 0h50.8v275h-50.8z" fill="#f8f8f9"/><path d="M558.9 0h50.8v275h-50.8z" fill="#f2f2f4"/><path d="M609.7 0h50.8v275h-50.8z" fill="#f8f8f9"/><path d="M660.5 0h50.8v275h-50.8z" fill="#f2f2f4"/><path d="M387.5 176h279v84h-279zm-213.7-45.3H76.7c-4.4 0-8 3.6-8 8V275h113.1V138.7c0-4.4-3.6-8-8-8z" fill="#dddee3"/><path d="M173.8 218H68.7v57h113.1v-49c0-4.4-3.6-8-8-8z" fill="#eff0f2"/><path d="M189.8 130.7h97.1c4.4 0 8 3.6 8 8V275H181.8V138.7c0-4.4 3.5-8 8-8z" fill="#dddee3"/><path d="M189.8 218h105.1v57H181.8v-49c0-4.4 3.5-8 8-8zM69 175.7H52.8c-4.4 0-8 3.6-8 8V275H77v-91.3c0-4.4-3.6-8-8-8z" fill="#e8e9ec"/><path d="M294.5 175.7h16.2c4.4 0 8 3.6 8 8V275h-32.2v-91.3c0-4.4 3.6-8 8-8zM173.8 218H68.7v57h113.1v-49c0-4.4-3.6-8-8-8z" fill="#e8e9ec"/><g fill="#dddee3"><path d="M625.9 111.8h5.6v70h-5.6zm28.5 92.5h5.6v70h-5.6zm-260.5 0h5.6v70h-5.6z"/><path d="M650.7 125.4h-44l9-44h26z"/></g><path d="M84.6 34.4h98v64h-98z" fill="#e8e9ec"/></svg></g><g transform="translate(855.0 1485.0) rotate(0.0 168.75 146.25) scale(3.731714598467509 3.71028096657576)"><svg width="90.441" height="78.835" viewBox="0 0 90.441 78.835"><g fill="#dddee3"><path d="M79.126 77.283C82.932 51.147 68.254 23.18 41.982 5.135c-2.385-1.638-1.03-5.38 1.852-5.122 11.303 1.009 29.518 5.994 40.393 26.379 14.221 26.656-.416 52.444-.416 52.444z"/><path d="M78.433 67.831C72.33 45.43 50.686 28.039 23.179 22.712c-2.497-.484-2.718-3.975-.305-4.778 9.464-3.152 25.894-5.526 41.812 7.089 20.815 16.495 18.066 42.415 18.066 42.415z"/><path d="M82.029 70.643C63.688 52.606 33.465 47.19 3.713 56.191c-2.81.85-4.94-2.534-2.909-4.655C8.7 43.288 24.069 32.101 46.93 36.371c24.5 4.576 36.35 24.026 39.824 30.886a2.94 2.94 0 0 1-1.019 3.799c-1.176.764-2.706.57-3.706-.413z"/><path d="M80.048 77.651c-16.373-12.193-40.783-12.49-62.709-1.258-1.99 1.02-4.036-1.277-2.803-3.141 4.84-7.315 14.924-17.868 32.781-17.771 23.351.126 35.507 19.556 35.507 19.556z"/><path d="M83.811 78.835v-27.04H56.822L79.463 78.68z"/></g></svg></g><g transform="translate(1128.75 438.75) rotate(0.0 371.25 686.25) scale(3.75 3.75)"><svg width="198" height="366" viewBox="0 0 198 366"><path d="M20.5 361.5h157c8.837 0 16-7.163 16-16v-325c0-8.837-7.163-16-16-16h-157c-8.837 0-16 7.163-16 16v325c0 8.836 7.163 16 16 16z" fill="#D4E7FF"/><g fill="#013b84"><path d="M177.5 366h-157C9.196 366 0 356.804 0 345.5v-325C0 9.196 9.196 0 20.5 0h157C188.804 0 198 9.196 198 20.5v325c0 11.304-9.196 20.5-20.5 20.5zM20.5 9C14.159 9 9 14.159 9 20.5v325c0 6.341 5.159 11.5 11.5 11.5h157c6.341 0 11.5-5.159 11.5-11.5v-325c0-6.341-5.159-11.5-11.5-11.5z"/><path d="M99 2.228H58.683l3.15 6.719h14.43c4.554 0 9.002 1.369 12.768 3.93l3.798 2.582a10.976 10.976 0 0 0 12.344 0l3.798-2.582a22.704 22.704 0 0 1 12.768-3.93h14.43l3.15-6.719z"/></g></svg></g><g transform="translate(1256.25 1023.75) rotate(0.0 243.75 258.75) scale(3.7615740740740744 3.7718658892128283)"><svg width="129.6" height="137.2" viewBox="0 0 129.6 137.2"><switch><g><path d="M0 25.5h129.6v111.7H0z" fill="#93c3ff"/><path d="M111 0H18.6L0 27.2h129.6z" fill="#016eea"/><path d="M97.2 13.5H32.4c-.8 0-1.5-.7-1.5-1.5s.7-1.5 1.5-1.5h64.8c.8 0 1.5.7 1.5 1.5s-.7 1.5-1.5 1.5z" fill="#002652"/><g fill="#dddee3"><path d="m25.1 85.4-7.4-21.3c-.2-.7.3-1.3.9-1.3h5c.4 0 .8.3 1 .7.9 2.9 4.3 13.9 4.9 16.6h.1c.6-2.5 4-13.7 5-16.6.1-.4.5-.7 1-.7h4.7c.7 0 1.2.7.9 1.3l-7.7 21.3c-.1.4-.5.7-.9.7h-6.4c-.5 0-.9-.3-1.1-.7zm44.1-11.1c0 7-4.9 12.2-12.9 12.2-7.7 0-12.3-5.1-12.3-11.8 0-7.1 5.1-12.3 12.7-12.3 7.8 0 12.5 5 12.5 11.9zm-18.3.2c0 4 2.2 7 5.7 7 3.6 0 5.7-3 5.7-7s-2.2-7-5.7-7-5.7 3-5.7 7zm26.7-6.4H72c-.6 0-1-.4-1-1v-3.3c0-.6.4-1 1-1h17.8c.6 0 1 .4 1 1v3.3c0 .6-.4 1-1 1h-5.7v17c0 .6-.4 1-1 1h-4.5c-.6 0-1-.4-1-1zm32.3 8.7h-8.5v4h9.6c.6 0 1 .4 1 1V85c0 .6-.4 1-1 1H95.9c-.6 0-1-.4-1-1V63.8c0-.6.4-1 1-1h14.6c.6 0 1 .4 1 1V67c0 .6-.4 1-1 1h-9v3.6h8.5c.6 0 1 .4 1 1v3.2c-.1.6-.6 1-1.1 1z"/></g></g></switch></svg></g><g transform="translate(1871.25 1770.0) rotate(0.0 266.25 28.125) scale(2.8615647519708527 2.9591246251775476)"><svg width="186.087" height="19.009" viewBox="0 0 186.087 19.009"><path d="M186.087 0c0 10.498-8.971 19.009-20.036 19.009H20.036C8.971 19.009 0 10.498 0 0z" fill="#eff0f2"/></svg></g><g transform="translate(1481.25 742.5) rotate(47.35013803176767 118.125 138.75) scale(4.342830882352941 4.363207547169811)"><svg width="54.4" height="63.6" viewBox="0 0 54.4 63.6"><switch><g><path d="M.057 11.998 38.333.044 54.46 51.682 16.184 63.636z" fill="#a5cdff"/><path d="m31.1 45.1-18-10 2-3.5L28.3 39l5.2-24.8 3.9.8z" fill="#016eea"/></g></switch></svg></g><g transform="translate(1691.25 480.0) rotate(0.0 335.625 673.125) scale(3.738846123853978 3.745211554029806)"><svg width="179.534" height="359.459" viewBox="0 0 179.534 359.459"><path d="m65.381 127.428-5.386 21.061a7.178 7.178 0 0 0-.027 3.405l18.612 80.02s18.435 1.565 18.407 1.053l-3.106-57.75-1.914-46.707z" fill="#99644c"/><path d="m77.958 221.418 2.046 38.041a18.29 18.29 0 0 0 .481 3.296l16.341 68.215s15.715-.042 15.176-.013l-3.925-71.401a18.625 18.625 0 0 0-1.387-6.074L95.557 226.5z" fill="#99644c"/><path d="m106.689 253.483-9.888-23.965-2.92-54.301-1.914-46.707-26.586-1.083-5.386 21.061a7.178 7.178 0 0 0-.027 3.405l18.537 79.701 1.498 27.864a18.29 18.29 0 0 0 .481 3.296l16.341 68.215s14.701-.039 15.176-.015l-3.925-71.398a18.6 18.6 0 0 0-1.387-6.073z" opacity=".1"/><path d="m121.106 132.342-2.402-8.602 46.022-24.643 9.415 13.201-17.45 8.841z" fill="#99644c"/><path d="M64.627 130.946h51.931l24.583-58.982H88.192z" fill="#013b84"/><path d="m59.634 96.606 93.628-22.063-12.937-19.947a11.235 11.235 0 0 0-11.664-4.897L78.256 59.942a11.234 11.234 0 0 0-8.37 7.307z" fill="#013b84"/><path d="M70.764 70.376 50.723 114.87l8.731 10.092c1.289 1.49 3.686 1.162 4.527-.62L88.53 72.351zm72.187-7.623 34.406 34.471c3.915 4.922 2.371 12.194-3.206 15.1l-3.183 1.659-43.608-42.487z" fill="#013b84"/><path d="m114.952 224.449 16.877 34.381a18.034 18.034 0 0 1 1.666 5.402l9.581 67.123s-13.255 2.874-12.74 2.704l-25.081-66.758-4.567-31.782z" fill="#99644c"/><path d="m78.447 138.311-7.038 22.738 31.707 85.328s14.616-8.512 14.616-9.023l-12.757-97.96zm17.012 190.765h16.335v5.94H95.459z" fill="#99644c"/><path d="M92.505 345.15h22.789l.021-2.296a26.103 26.103 0 0 0-1.585-9.201l-2.094-5.73-19.132 7.027v10.2z" fill="#7eb8ff"/><path d="M112.074 326.39v8.758c-.52 0-14.169 7.462-14.537 7.83l-2.172 2.172H68.493l.866-2.49a3.921 3.921 0 0 1 2.784-2.524l14.076-3.403a11.742 11.742 0 0 0 6.664-4.407l3.236-4.353a3.922 3.922 0 0 1 3.148-1.582h12.807z" fill="#7eb8ff"/><path d="M68.524 344.782h46.504v3.503H68.524z" fill="#a9cfff"/><path d="M115.7 134.093H63.374l-3.166 13.849a20 20 0 0 0-.019 8.831l13.848 61.784H115.7l.571-66.202z" fill="#016eea"/><path d="m80.637 73.382-11.851 8.573a7.489 7.489 0 0 0-2.854 7.973l3.823 14.548a7.5 7.5 0 0 1 .011 3.767l-6.632 25.831 54.172 21.757-.122-27.945 5.403-58.623z" fill="#013b84"/><path d="M136.721 356.294a7.202 7.202 0 0 0 6.475 3.147l9.219-.657c2.966-.312 4.665-3.536 3.246-6.16l-12.314-22.762-14.476 5.243 1.189 11.347z" fill="#a9cfff"/><path d="M136.59 353.545a7.202 7.202 0 0 0 6.475 3.147l9.219-.657c2.966-.312 4.665-3.536 3.246-6.16l-12.314-22.762-14.476 5.243 1.19 11.347z" fill="#7eb8ff"/><path d="m139.006 335.989 6.615-2.41-3.897-10.698-2.441.889a3.599 3.599 0 0 0-2.261 4.252z" fill="#7eb8ff"/><path d="m130.723 339.007 8.892-3.239-3.945-7.388a3.6 3.6 0 0 0-4.408-1.687l-4.436 1.616z" fill="#7eb8ff"/><path d="m133.304 122.91-8.139 6.674a5.435 5.435 0 0 0-2.35 4.281l-.062 1.7.09 7.411a3.45 3.45 0 0 1-.859 2.339l-1.621 1.858.115 3.961a6.117 6.117 0 0 1-.494 2.636l-3.301 7.717a.457.457 0 0 1-.599.244l-.01-.004-.021-.011a1.813 1.813 0 0 1-.929-2.08l1.988-7.434-1.351-8.878-.703-1.595a.513.513 0 0 0-.519-.299.53.53 0 0 0-.461.416c-.294 1.358-1.146 5.721-1.282 6.454a1.337 1.337 0 0 1-1.596 1.079 1.39 1.39 0 0 1-1.122-1.268s.062-3.592.146-5.873a8.438 8.438 0 0 0-.223-2.391 7.266 7.266 0 0 1 .148-3.853l1.191-3.422c.679-1.947 1.257-3.921 3.829-5.227l4.784-4.114z" fill="#99644c"/><g fill="#93c3ff"><path d="m98.759 69.537 28.511-19.521-43.333 8.796 13.267 10.665c.448.361 1.08.385 1.555.06z"/><path d="M100.958 67.056h1v29.811h-1zm-6.974-.666h1v31.309h-1z"/><path d="M102.168 99.126h-1.42a.591.591 0 0 1-.529-.856l.71-1.42a.591.591 0 0 1 1.058 0l.71 1.42a.592.592 0 0 1-.529.856zm-6.888 0h-1.42a.591.591 0 0 1-.529-.856l.71-1.42a.591.591 0 0 1 1.058 0l.71 1.42a.591.591 0 0 1-.529.856z"/></g><circle cx="122.936" cy="19.767" fill="#002652" r="14.657"/><path d="M96.848 68.676V35.479h17.877v17.183L98.787 69.45c-.699.736-1.939.241-1.939-.774zm-7.03-53.917h9.893v12.576h-9.893z" fill="#99644c"/><path d="M99.04 5.72h12.325v25.152H99.04z" fill="#002652"/><path d="m115.467 36.67-7.576 3.366V7.964a3.408 3.408 0 0 1 3.408-3.408h1.533c7.304 0 12.892 6.504 11.792 13.725l-1.216 7.985a13.633 13.633 0 0 1-7.941 10.404z" fill="#002652"/><path d="M86.208 15.557v5.999c0 .218.042.434.123.636l.795 1.978a1.703 1.703 0 0 1-.442 1.903l-.477.429v11.602a3.407 3.407 0 0 0 3.422 3.408l18.448-.088-.088-15.796z" fill="#99644c"/><path d="m89.201 33.414-4.712-2.446a1.704 1.704 0 0 1-.337-2.795l5.048-4.414v9.655z" fill="#99644c"/><path d="M86.762 21.97h3.016c.271 0 .531.108.723.299l.971.971c.644.644.188 1.745-.723 1.745h-3.506m2.001 8.175-.389.76a1.702 1.702 0 0 1-1.036.858l-1.541.453V33.12z" opacity=".1"/><path d="M104.445 22.096H89.336l-.341-2.499h15.45z" fill="#93c3ff"/><path d="M108.24 28.85h-9.184v-9.132h9.184a3.673 3.673 0 0 1 3.673 3.673v1.787a3.673 3.673 0 0 1-3.673 3.672z" fill="#99644c"/><path d="M92.783 12.768h10.131v5.195c1.619.129 3.168.226 3.397.15.348-.116-3.308 3.932-5.601 6.444-.629.69-1.777.244-1.777-.69v-3.323c0-.565-.458-1.022-1.022-1.022h-5.127v-6.754z" fill="#002652"/><path d="M97.832 4.357h.445a3.408 3.408 0 0 1 3.408 3.408V19.6H85.904v-3.315c0-6.587 5.34-11.928 11.928-11.928z" fill="#99644c"/><path d="M103.214 4.857H89.17v8.008a6.816 6.816 0 0 0 6.816 6.816h7.228z" fill="#002652"/><path d="m88.818 20.597.022.022-.022 4.972-3.327-.022.022-4.972zm0-1h-3.304c-.565 0-1.022.458-1.022 1.022v4.95c0 .565.458 1.022 1.022 1.022h3.304c.565 0 1.022-.458 1.022-1.022v-4.95a1.021 1.021 0 0 0-1.022-1.022z" fill="#93c3ff"/><path d="M104.907 14.775c0-5.358 6.98-9.701 15.591-9.701 7.346 0 13.505 3.161 15.156 7.416.428 1.102-.421 2.285-1.603 2.285z" fill="#002652"/><path d="M85.775 10.688C85.775 4.785 93.465 0 102.952 0c8.093 0 14.879 3.482 16.698 8.17.471 1.214-.464 2.517-1.766 2.517H85.775z" fill="#002652"/><path d="m96.989 41.432 4.053.016c.956.004 1.471 1.123.852 1.851l-5.019 5.906" opacity=".1"/><circle cx="136.358" cy="27.028" fill="#002652" r="14.657"/><path d="M118.852 36.028a.5.5 0 0 1-.5-.5V4.394a.5.5 0 0 1 1 0v31.135a.5.5 0 0 1-.5.499zm4.182-.245a.5.5 0 0 1-.441-.734l12.745-24.178a.5.5 0 1 1 .884.467l-12.745 24.178a.501.501 0 0 1-.443.267z" fill="#2888ff"/><path d="m21.822 92.781 7.562-3.593 32.563 26.468 1.772 2.55a5.937 5.937 0 0 1-.226 7.082c-3.541 4.457-10.14 4.923-14.272 1.007l-1.991-1.887z" fill="#99644c"/><path d="m27.049 85.799 8.148 8.732-7.894-1.097c-4.508 1.215-4.212.312-6.856.847-4.282 1.127-5.699-3.442-9.625-3.422l-.388-4.229 1.441-.305c1.441-.305 2.023-2.406 1.126-2.252s-6.704 1.161-6.704 1.161l-2.24 2.647-.839 1.577c-.21.394-.5.716-.87.965-1.125.795-2.432.433-2.344-.246l.026-.093 1.466-3.665c.124-.267.235-.488.453-.729.533-.657 1.733-2.084 2.253-2.694.435-.483.951-.893 1.568-1.124l7.314-3.002c1.187-.476 2.593-.288 3.558.582l4.994 3.178c1.448 1.306 5.413 3.169 5.413 3.169z" fill="#99644c"/><path d="M10.889 90.81s-3.14.086-6.067.131c-2.927.044-2.518-2.707-.286-3.145l5.952-1.168z" fill="#99644c"/></svg></g></svg>